<svg width="64" height="64" viewBox="0 0 64 64" fill="none" xmlns="http://www.w3.org/2000/svg">
<path d="M56 34.1067C55.5805 38.6459 53.877 42.9717 51.0887 46.5781C48.3003 50.1844 44.5426 52.9221 40.2552 54.4708C35.9678 56.0194 31.328 56.315 26.8787 55.3229C22.4294 54.3308 18.3546 52.0921 15.1313 48.8687C11.9079 45.6453 9.66917 41.5706 8.67708 37.1213C7.685 32.672 7.98057 28.0322 9.52922 23.7448C11.0779 19.4574 13.8155 15.6996 17.4219 12.9113C21.0282 10.123 25.3541 8.41948 29.8933 8C27.2358 11.5954 25.9569 16.0252 26.2894 20.4838C26.6219 24.9423 28.5436 29.1335 31.7051 32.2949C34.8665 35.4564 39.0577 37.3781 43.5162 37.7106C47.9748 38.0431 52.4046 36.7642 56 34.1067Z" stroke="white" stroke-width="4" stroke-linecap="round" stroke-linejoin="round"/>
</svg>
