<svg width="64" height="64" viewBox="0 0 64 64" fill="none" xmlns="http://www.w3.org/2000/svg">
<g clip-path="url(#clip0_5_29)">
<path d="M48 26.6667H44.64C43.6423 22.8027 41.5808 19.296 38.6897 16.5451C35.7986 13.7941 32.1939 11.9093 28.2851 11.1047C24.3763 10.3002 20.3202 10.6081 16.5777 11.9936C12.8352 13.379 9.55637 15.7865 7.11373 18.9423C4.6711 22.0982 3.16263 25.8759 2.75975 29.8463C2.35686 33.8166 3.0757 37.8204 4.8346 41.4026C6.59349 44.9848 9.3219 48.0018 12.7098 50.1108C16.0977 52.2199 20.0093 53.3363 24 53.3333H48C51.5362 53.3333 54.9276 51.9286 57.4281 49.4281C59.9286 46.9276 61.3333 43.5362 61.3333 40C61.3333 36.4638 59.9286 33.0724 57.4281 30.5719C54.9276 28.0714 51.5362 26.6667 48 26.6667Z" stroke="white" stroke-width="4" stroke-linecap="round" stroke-linejoin="round"/>
</g>
<defs>
<clipPath id="clip0_5_29">
<rect width="64" height="64" fill="white"/>
</clipPath>
</defs>
</svg>
