<svg width="64" height="65" viewBox="0 0 64 65" fill="none" xmlns="http://www.w3.org/2000/svg">
<g clip-path="url(#clip0_5_29)">
<path d="M56 46.3333H54.32C53.8212 44.4013 52.7904 42.648 51.3449 41.2725C49.8993 39.8971 48.097 38.9547 46.1426 38.5524C44.1882 38.1501 42.1601 38.3041 40.2889 38.9968C38.4176 39.6895 36.7782 40.8932 35.5569 42.4712C34.3356 44.0491 33.5813 45.938 33.3799 47.9231C33.1784 49.9083 33.5379 51.9102 34.4173 53.7013C35.2968 55.4924 36.661 57.0009 38.3549 58.0554C40.0489 59.1099 42.0046 59.6682 44 59.6667H56C57.7681 59.6667 59.4638 58.9643 60.714 57.714C61.9643 56.4638 62.6667 54.7681 62.6667 53C62.6667 51.2319 61.9643 49.5362 60.714 48.286C59.4638 47.0357 57.7681 46.3333 56 46.3333Z" stroke="white" stroke-width="4" stroke-linecap="round" stroke-linejoin="round"/>
</g>
<g clip-path="url(#clip1_5_29)">
<path d="M48 26.6667H44.64C43.6423 22.8027 41.5808 19.296 38.6897 16.5451C35.7986 13.7941 32.1939 11.9093 28.2851 11.1047C24.3763 10.3002 20.3202 10.6081 16.5777 11.9936C12.8352 13.379 9.55637 15.7865 7.11373 18.9423C4.6711 22.0982 3.16263 25.8759 2.75975 29.8463C2.35686 33.8166 3.0757 37.8204 4.8346 41.4026C6.59349 44.9848 9.3219 48.0018 12.7098 50.1108C16.0977 52.2199 20.0093 53.3363 24 53.3333H48C51.5362 53.3333 54.9276 51.9286 57.4281 49.4281C59.9286 46.9276 61.3333 43.5362 61.3333 40C61.3333 36.4638 59.9286 33.0724 57.4281 30.5719C54.9276 28.0714 51.5362 26.6667 48 26.6667Z" stroke="white" stroke-width="4" stroke-linecap="round" stroke-linejoin="round"/>
</g>
<defs>
<clipPath id="clip0_5_29">
<rect width="32" height="32" fill="white" transform="translate(32 33)"/>
</clipPath>
<clipPath id="clip1_5_29">
<rect width="64" height="64" fill="white"/>
</clipPath>
</defs>
</svg>
