<svg width="64" height="64" viewBox="0 0 64 64" fill="none" xmlns="http://www.w3.org/2000/svg">
<g clip-path="url(#clip0_5_29)">
<path d="M50.6667 45.0667C53.9071 44.4087 56.7874 42.5701 58.7485 39.9079C60.7096 37.2457 61.6115 33.9498 61.2792 30.66C60.9469 27.3702 59.4041 24.3212 56.9502 22.105C54.4963 19.8887 51.3065 18.6633 48 18.6667H44.64C43.7565 15.2462 42.0374 12.0986 39.6371 9.50663C37.2367 6.91462 34.2302 4.95928 30.8875 3.81617C27.5448 2.67306 23.9706 2.37795 20.4857 2.95735C17.0008 3.53676 13.7143 4.97253 10.9213 7.13576C8.12837 9.29899 5.91633 12.122 4.48382 15.3512C3.05131 18.5805 2.44317 22.115 2.714 25.6373C2.98484 29.1597 4.12617 32.5596 6.03552 35.5319C7.94487 38.5042 10.5625 40.9558 13.6533 42.6667M34.6667 29.3333L24 45.3333H40L29.3333 61.3333" stroke="white" stroke-width="4" stroke-linecap="round" stroke-linejoin="round"/>
</g>
<defs>
<clipPath id="clip0_5_29">
<rect width="64" height="64" fill="white"/>
</clipPath>
</defs>
</svg>
