<svg width="64" height="64" viewBox="0 0 64 64" fill="none" xmlns="http://www.w3.org/2000/svg">
<path d="M42.6667 34.6667V56M21.3333 34.6667V56M32 40V61.3333M53.3333 44.2133C56.1367 42.9856 58.4323 40.8308 59.8349 38.1108C61.2375 35.3907 61.6617 32.271 61.0363 29.2752C60.4108 26.2794 58.7739 23.5899 56.4001 21.6582C54.0264 19.7266 51.0604 18.6703 48 18.6667H44.64C43.7947 15.3934 42.1836 12.3679 39.9395 9.83947C37.6954 7.31107 34.8825 5.35221 31.7327 4.12433C28.5829 2.89645 25.1864 2.43471 21.8232 2.77719C18.4599 3.11966 15.2262 4.25653 12.3885 6.09409C9.55088 7.93165 7.19057 10.4173 5.50215 13.3461C3.81372 16.275 2.84553 19.5631 2.67737 22.9396C2.5092 26.3161 3.14589 29.6842 4.53495 32.7663C5.924 35.8484 8.02565 38.5562 10.6667 40.6667" stroke="white" stroke-linecap="round" stroke-linejoin="round"/>
</svg>
