<svg width="64" height="64" viewBox="0 0 64 64" fill="none" xmlns="http://www.w3.org/2000/svg">
<g clip-path="url(#clip0_5_29)">
<path d="M53.3333 46.88C56.1367 45.6522 58.4323 43.4975 59.8349 40.7774C61.2375 38.0574 61.6617 34.9376 61.0363 31.9418C60.4108 28.946 58.7739 26.2566 56.4001 24.3249C54.0264 22.3932 51.0604 21.3369 48 21.3333H44.64C43.7947 18.0601 42.1836 15.0345 39.9395 12.5061C37.6954 9.97774 34.8825 8.01887 31.7327 6.79099C28.5829 5.56311 25.1864 5.10138 21.8232 5.44385C18.4599 5.78632 15.2262 6.92319 12.3885 8.76076C9.55088 10.5983 7.19057 13.084 5.50215 16.0128C3.81372 18.9416 2.84553 22.2298 2.67737 25.6063C2.5092 28.9827 3.14589 32.3508 4.53495 35.4329C5.924 38.515 8.02565 41.2229 10.6667 43.3333M21.3333 42.6667H21.36 M0 10003.3333H21.36M32 48H32.0267M32 0 M42.6667 42.6667H42.6933 M42.6667" stroke="white" stroke-width="4" stroke-linecap="round" stroke-linejoin="round"/>
</g>
<defs>
<clipPath id="clip0_5_29">
<rect width="64" height="64" fill="white"/>
</clipPath>
</defs>
</svg>
