<svg width="56" height="56" viewBox="0 0 56 56" fill="none" xmlns="http://www.w3.org/2000/svg">
<g clip-path="url(#clip0_5_29)">
<path d="M6.33422 31.8203L10.2735 31.1257M45.7265 24.8743L49.6658 24.1797M15.3783 46.0256L17.682 42.7356M38.3179 13.2644L40.6216 9.97443M31.8203 49.6658L31.1257 45.7265M24.8743 10.2735L24.1797 6.33424M46.0256 40.6217L42.7356 38.318M13.2644 17.6821L9.97442 15.3784M26.2635 18.1519C31.7025 17.1929 36.889 20.8246 37.8481 26.2635C38.8071 31.7025 35.1754 36.8891 29.7365 37.8481C24.2975 38.8071 19.1109 35.1754 18.1519 29.7365C17.1929 24.2975 20.8246 19.111 26.2635 18.1519Z" stroke="white" stroke-width="4" stroke-linecap="round" stroke-linejoin="round"/>
</g>
<defs>
<clipPath id="clip0_5_29">
<rect width="48" height="48" fill="white" transform="translate(8.53217 55.8029) rotate(-100)"/>
</clipPath>
</defs>
</svg>
