<svg width="64" height="66" viewBox="0 0 64 66" fill="none" xmlns="http://www.w3.org/2000/svg">
<g clip-path="url(#clip0_5_29)">
<path d="M50.6667 45.0667C53.9071 44.4087 56.7874 42.5701 58.7485 39.9079C60.7096 37.2457 61.6115 33.9498 61.2792 30.66C60.9469 27.3702 59.4041 24.3212 56.9502 22.105C54.4963 19.8887 51.3065 18.6633 48 18.6667H44.64C43.7565 15.2462 42.0374 12.0986 39.6371 9.50663C37.2367 6.91462 34.2302 4.95928 30.8875 3.81617C27.5448 2.67306 23.9706 2.37795 20.4857 2.95735C17.0008 3.53676 13.7143 4.97253 10.9213 7.13576C8.12837 9.29899 5.91633 12.122 4.48382 15.3512C3.05131 18.5805 2.44317 22.115 2.714 25.6373C2.98484 29.1597 4.12617 32.5596 6.03552 35.5319C7.94487 38.5042 10.5625 40.9558 13.6533 42.6667M34.6667 29.3333L24 45.3333H40L29.3333 61.3333" stroke="white" stroke-width="4" stroke-linecap="round" stroke-linejoin="round"/>
</g>
<g clip-path="url(#clip1_5_29)">
<path d="M41.6667 59.3333V62M41.6667 51.3333V54M52.3333 59.3333V62M52.3333 51.3333V54M47 62V64.6667M47 54V56.6667M57.6667 56.1067C59.0683 55.4928 60.2161 54.4154 60.9174 53.0554C61.6187 51.6954 61.8308 50.1355 61.5181 48.6376C61.2054 47.1397 60.3869 45.795 59.2001 44.8291C58.0132 43.8633 56.5302 43.3351 55 43.3333H53.32C52.8974 41.6967 52.0918 40.1839 50.9697 38.9197C49.8477 37.6555 48.4412 36.6761 46.8663 36.0622C45.2915 35.4482 43.5932 35.2174 41.9116 35.3886C40.2299 35.5598 38.6131 36.1283 37.1943 37.047C35.7754 37.9658 34.5953 39.2086 33.7511 40.6731C32.9069 42.1375 32.4228 43.7816 32.3387 45.4698C32.2546 47.158 32.5729 48.8421 33.2675 50.3831C33.962 51.9242 35.0128 53.2781 36.3333 54.3333" stroke="white" stroke-width="4" stroke-linecap="round" stroke-linejoin="round"/>
</g>
<defs>
<clipPath id="clip0_5_29">
<rect width="64" height="64" fill="white"/>
</clipPath>
<clipPath id="clip1_5_29">
<rect width="32" height="32" fill="white" transform="translate(31 34)"/>
</clipPath>
</defs>
</svg>
