<svg width="64" height="64" viewBox="0 0 64 64" fill="none" xmlns="http://www.w3.org/2000/svg">
<g clip-path="url(#clip0_5_29)">
<path d="M50.6667 45.0667C53.9071 44.4087 56.7874 42.5701 58.7485 39.9079C60.7096 37.2457 61.6115 33.9498 61.2792 30.66C60.9469 27.3702 59.4041 24.3212 56.9502 22.105C54.4963 19.8887 51.3065 18.6633 48 18.6667H44.64C43.7565 15.2462 42.0374 12.0986 39.6371 9.50663C37.2367 6.91462 34.2302 4.95928 30.8875 3.81617C27.5448 2.67306 23.9706 2.37795 20.4857 2.95735C17.0008 3.53676 13.7143 4.97253 10.9213 7.13576C8.12837 9.29899 5.91633 12.122 4.48382 15.3512C3.05131 18.5805 2.44317 22.115 2.714 25.6373C2.98484 29.1597 4.12617 32.5596 6.03552 35.5319C7.94487 38.5042 10.5625 40.9558 13.6533 42.6667M34.6667 29.3333L24 45.3333H40L29.3333 61.3333" stroke="white" stroke-width="4" stroke-linecap="round" stroke-linejoin="round"/>
</g>
<g clip-path="url(#clip1_5_29)">
<path d="M53 41.3333H51.32C50.8212 39.4013 49.7904 37.648 48.3449 36.2725C46.8993 34.8971 45.097 33.9547 43.1426 33.5524C41.1882 33.1501 39.1601 33.3041 37.2889 33.9968C35.4176 34.6895 33.7782 35.8932 32.5569 37.4712C31.3356 39.0491 30.5813 40.938 30.3799 42.9231C30.1784 44.9083 30.5379 46.9102 31.4173 48.7013C32.2968 50.4924 33.661 52.0009 35.3549 53.0554C37.0489 54.1099 39.0046 54.6682 41 54.6667H53C54.7681 54.6667 56.4638 53.9643 57.714 52.714C58.9643 51.4638 59.6667 49.7681 59.6667 48C59.6667 46.2319 58.9643 44.5362 57.714 43.286C56.4638 42.0357 54.7681 41.3333 53 41.3333Z" stroke="white" stroke-width="4" stroke-linecap="round" stroke-linejoin="round"/>
</g>
<defs>
<clipPath id="clip0_5_29">
<rect width="64" height="64" fill="white"/>
</clipPath>
<clipPath id="clip1_5_29">
<rect width="32" height="32" fill="white" transform="translate(29 28)"/>
</clipPath>
</defs>
</svg>
